<svg xmlns="http://www.w3.org/2000/svg" width="500" height="500" version="1.0" viewBox="0 0 375 375"><path fill="#c2de21" d="m116.956 174.562-7.953-4.235v-.359l7.953-4.234v.437l-7.547 3.985 7.547 3.984ZM125.587 176.952c-1.437 0-2.637-.28-3.594-.843a5.29 5.29 0 0 1-2.125-2.391c-.468-1.02-.703-2.219-.703-3.594 0-1.332.235-2.504.703-3.515a5.296 5.296 0 0 1 2.141-2.391c.957-.582 2.164-.875 3.625-.875 1.32 0 2.344.215 3.062.64.727.419 1.094.93 1.094 1.532 0 .46-.199.84-.594 1.14-.398.305-.968.454-1.718.454 0-1.25-.184-2.157-.547-2.72-.356-.57-.93-.858-1.719-.858-1.031 0-1.781.527-2.25 1.578-.46 1.043-.687 2.715-.687 5.015 0 2.325.285 4.012.859 5.063.582 1.043 1.508 1.562 2.781 1.562 1.82 0 2.942-1.015 3.36-3.047.332.137.5.407.5.813 0 .344-.133.703-.391 1.078-.262.375-.7.7-1.313.969-.617.258-1.445.39-2.484.39ZM131.721 174.562v-.422l7.547-3.984-7.547-3.985v-.437l7.953 4.234v.36Zm0 0"/><path fill="#91ebe1" d="M88.958 184.77c.938 0 1.645.245 2.125.734.488.492.735 1.203.735 2.14 0 .95-.243 1.664-.72 2.141-.48.48-1.195.719-2.14.719h-1.906v-5.735Zm2.094 2.859c0-.758-.18-1.317-.531-1.672-.344-.363-.868-.547-1.563-.547h-1.172v4.453h1.172c.695 0 1.219-.176 1.563-.531.351-.363.53-.93.53-1.703ZM99.602 189.863v.64h-3.5v-5.734h3.469v.641h-2.734v1.89h2.359v.641h-2.36v1.922ZM111.72 189.847v.657h-3.124v-5.735h.734v5.078ZM119.024 188.832h-2.39l-.626 1.672h-.75l2.157-5.797h.812l2.172 5.797h-.766Zm-.25-.656-.953-2.563-.938 2.563ZM129.125 184.77h.735v5.734h-.735ZM139.85 184.77v5.734h-.735v-4.625l-1.75 2.453h-.39l-1.735-2.453v4.625h-.734v-5.735h.796l1.875 2.625 1.86-2.625ZM147.658 188.832h-2.39l-.626 1.672h-.75l2.157-5.797h.812l2.172 5.797h-.766Zm-.25-.656-.953-2.563-.938 2.563ZM157.459 187.004v3.093c-.305.18-.633.313-.985.407a4.41 4.41 0 0 1-.984.125c-.606 0-1.121-.125-1.547-.375a2.427 2.427 0 0 1-.953-1.047c-.211-.445-.313-.969-.313-1.563 0-.562.098-1.066.297-1.515.207-.446.52-.801.938-1.063.425-.27.953-.406 1.578-.406.332 0 .613.031.844.094.226.062.484.164.765.297v.687c-.25-.133-.5-.238-.75-.312a2.764 2.764 0 0 0-.86-.125c-.429 0-.796.101-1.109.296-.312.2-.546.477-.703.829a2.965 2.965 0 0 0-.234 1.203c0 .468.078.883.234 1.234.157.356.383.633.688.828.312.2.687.297 1.125.297.207 0 .41-.023.61-.078.194-.05.41-.117.64-.203v-2.047h-2.14v-.656ZM161.937 184.77h.734v5.734h-.734ZM171.676 184.77v5.734h-.812l-2.813-4.5v4.5h-.734v-5.735h.797l2.828 4.5v-4.5ZM179.478 188.832h-2.39l-.626 1.672h-.75l2.157-5.797h.812l2.172 5.797h-.766Zm-.25-.656-.953-2.563-.938 2.563ZM187.31 190.629c-.617 0-1.137-.121-1.563-.36a2.324 2.324 0 0 1-.937-1.047c-.211-.445-.313-.972-.313-1.578 0-.562.102-1.066.313-1.515.207-.446.52-.801.937-1.063.426-.27.946-.406 1.563-.406.258 0 .492.027.703.078.207.043.437.11.687.203v.672a3.125 3.125 0 0 0-1.375-.312 1.957 1.957 0 0 0-1.828 1.14 2.621 2.621 0 0 0-.234 1.203c0 .47.078.883.234 1.235.157.343.39.617.703.812.313.2.68.297 1.11.297.258 0 .52-.035.781-.11.258-.07.535-.179.828-.327l.235.625a3.872 3.872 0 0 1-.922.328 3.777 3.777 0 0 1-.922.125ZM193.257 184.77h.735v5.734h-.735ZM198.247 190.504Zm2.734.125c-.586 0-1.086-.13-1.5-.39a2.442 2.442 0 0 1-.922-1.063c-.21-.446-.312-.957-.312-1.532 0-.562.101-1.066.312-1.515.207-.446.516-.801.922-1.063.414-.27.914-.406 1.5-.406.582 0 1.078.137 1.485.406.414.262.726.621.937 1.078.207.45.313.95.313 1.5 0 .575-.106 1.086-.313 1.532-.21.449-.523.804-.937 1.062-.407.262-.903.39-1.485.39Zm0-.64c.414 0 .77-.102 1.063-.313.3-.207.53-.489.687-.844.156-.352.235-.754.235-1.203 0-.438-.079-.828-.235-1.172a2.003 2.003 0 0 0-.687-.844c-.293-.207-.649-.312-1.063-.312-.418 0-.777.105-1.078.312a2.03 2.03 0 0 0-.672.844c-.148.355-.219.75-.219 1.187 0 .45.07.852.22 1.203.155.356.378.637.671.844.3.2.66.297 1.078.297Zm.422-6.97h.844l-.922 1.157h-.719ZM212.35 184.77v5.734h-.813l-2.812-4.5v4.5h-.735v-5.735h.797l2.828 4.5v-4.5ZM224.843 188.832h-2.39l-.625 1.672h-.75l2.156-5.797h.812l2.172 5.797h-.765Zm-.25-.656-.953-2.563-.937 2.563ZM233.378 189.847v.657h-3.125v-5.735h.734v5.078ZM244.639 190.629c-.618 0-1.137-.121-1.563-.36a2.324 2.324 0 0 1-.937-1.047c-.211-.445-.313-.972-.313-1.578 0-.562.102-1.066.313-1.515.207-.446.52-.801.937-1.063.426-.27.945-.406 1.563-.406.257 0 .492.027.703.078.207.043.437.11.687.203v.672a3.125 3.125 0 0 0-1.375-.312 1.957 1.957 0 0 0-1.828 1.14 2.621 2.621 0 0 0-.234 1.203c0 .47.078.883.234 1.235.156.343.39.617.703.812.313.2.68.297 1.11.297.257 0 .52-.035.78-.11.259-.07.536-.179.829-.327l.234.625a3.872 3.872 0 0 1-.921.328 3.777 3.777 0 0 1-.922.125ZM250.195 190.504Zm2.735.125c-.586 0-1.086-.13-1.5-.39a2.442 2.442 0 0 1-.922-1.063c-.211-.446-.313-.957-.313-1.532 0-.562.102-1.066.313-1.515.207-.446.516-.801.922-1.063.414-.27.914-.406 1.5-.406.582 0 1.078.137 1.484.406.414.262.727.621.938 1.078.207.45.312.95.312 1.5 0 .575-.105 1.086-.312 1.532-.211.449-.524.804-.938 1.062-.406.262-.902.39-1.484.39Zm0-.64c.414 0 .77-.102 1.062-.313.301-.207.532-.489.688-.844.156-.352.234-.754.234-1.203 0-.438-.078-.828-.234-1.172a2.003 2.003 0 0 0-.688-.844c-.293-.207-.648-.312-1.062-.312-.418 0-.778.105-1.078.312a2.03 2.03 0 0 0-.672.844c-.149.355-.219.75-.219 1.187 0 .45.07.852.219 1.203.156.356.379.637.672.844.3.2.66.297 1.078.297Zm.422-6.97h.843l-.921 1.157h-.72ZM261.845 184.77c.938 0 1.645.245 2.125.734.489.492.735 1.203.735 2.14 0 .95-.242 1.664-.719 2.141-.48.48-1.195.719-2.14.719h-1.907v-5.735Zm2.094 2.859c0-.758-.18-1.317-.531-1.672-.344-.363-.867-.547-1.563-.547h-1.172v4.453h1.172c.696 0 1.22-.176 1.563-.531.351-.363.531-.93.531-1.703ZM268.99 184.77h.734v5.734h-.735ZM278.76 187.004v3.093c-.304.18-.633.313-.984.407a4.41 4.41 0 0 1-.984.125c-.606 0-1.122-.125-1.547-.375a2.427 2.427 0 0 1-.953-1.047c-.211-.445-.313-.969-.313-1.563 0-.562.098-1.066.297-1.515.207-.446.52-.801.937-1.063.426-.27.954-.406 1.579-.406.332 0 .613.031.843.094.227.062.485.164.766.297v.687c-.25-.133-.5-.238-.75-.312a2.764 2.764 0 0 0-.86-.125c-.43 0-.796.101-1.109.296-.312.2-.547.477-.703.829a2.965 2.965 0 0 0-.234 1.203c0 .468.078.883.234 1.234.156.356.383.633.688.828.312.2.687.297 1.125.297.207 0 .41-.023.609-.078.195-.05.41-.117.64-.203v-2.047h-2.14v-.656ZM285.582 190.629c-.586 0-1.086-.13-1.5-.39a2.442 2.442 0 0 1-.922-1.063c-.21-.446-.312-.957-.312-1.532 0-.562.101-1.066.312-1.515.207-.446.516-.801.922-1.063.414-.27.914-.406 1.5-.406.582 0 1.078.137 1.485.406.414.262.726.621.937 1.078.207.45.313.95.313 1.5 0 .575-.106 1.086-.313 1.532-.21.449-.523.804-.937 1.062-.407.262-.903.39-1.485.39Zm0-.64c.414 0 .77-.102 1.063-.313.3-.207.53-.489.687-.844.156-.352.235-.754.235-1.203 0-.438-.079-.828-.235-1.172a2.003 2.003 0 0 0-.687-.844c-.293-.207-.649-.312-1.063-.312-.418 0-.777.105-1.078.312a2.03 2.03 0 0 0-.672.844c-.148.355-.219.75-.219 1.187 0 .45.07.852.22 1.203.155.356.378.637.671.844.3.2.66.297 1.078.297ZM98.969 197.381c.937 0 1.644.246 2.125.735.488.492.734 1.203.734 2.14 0 .95-.242 1.664-.719 2.14-.48.481-1.195.72-2.14.72h-1.906v-5.735Zm2.094 2.86c0-.758-.18-1.317-.532-1.672-.343-.364-.867-.547-1.562-.547h-1.172v4.453h1.172c.695 0 1.219-.176 1.562-.531.352-.364.532-.93.532-1.703ZM109.613 202.475v.64h-3.5v-5.734h3.469v.64h-2.735v1.892h2.36v.64h-2.36v1.922ZM115.54 203.24c-.73 0-1.387-.132-1.97-.406l.001-.687c.582.305 1.238.453 1.969.453.414 0 .718-.086.906-.266a.887.887 0 0 0 .297-.687c0-.281-.09-.488-.266-.625-.18-.133-.437-.25-.781-.344l-.516-.156a4.094 4.094 0 0 1-.75-.281 1.495 1.495 0 0 1-.53-.485c-.138-.207-.204-.484-.204-.828 0-.531.156-.937.469-1.219.32-.289.77-.437 1.343-.437.344 0 .641.031.891.094.258.062.531.164.813.297v.671a3.538 3.538 0 0 0-1.704-.421c-.367 0-.636.09-.812.265-.168.18-.25.418-.25.719 0 .281.082.492.25.625.164.125.422.234.766.328l.515.156c.313.086.57.184.781.297.22.117.395.281.532.5.133.211.203.485.203.828-.012.5-.188.899-.531 1.188-.344.281-.82.422-1.422.422ZM124.964 201.444h-2.391l-.625 1.672h-.75l2.156-5.797h.813l2.172 5.797h-.766Zm-.25-.656-.954-2.563-.937 2.563ZM132.217 200.694h-1.11v2.422h-.734v-5.735h2c1.25 0 1.875.559 1.875 1.672 0 .438-.105.793-.312 1.063-.211.273-.524.445-.938.515l1.532 2.485h-.844Zm-1.11-.656h1.266c.75 0 1.125-.329 1.125-.985 0-.351-.093-.613-.281-.781-.187-.164-.469-.25-.844-.25h-1.265ZM140.586 200.694h-1.109v2.422h-.734v-5.735h2c1.25 0 1.875.559 1.875 1.672 0 .438-.106.793-.313 1.063-.21.273-.523.445-.937.515l1.53 2.485h-.843Zm-1.109-.656h1.266c.75 0 1.125-.329 1.125-.985 0-.351-.094-.613-.282-.781-.187-.164-.468-.25-.843-.25h-1.266ZM149.456 203.24c-.586 0-1.086-.128-1.5-.39a2.442 2.442 0 0 1-.922-1.062c-.211-.446-.313-.958-.313-1.532 0-.562.102-1.066.313-1.515.207-.446.515-.801.922-1.063.414-.27.914-.406 1.5-.406.582 0 1.078.137 1.484.406.414.262.727.621.938 1.078.207.45.312.95.312 1.5 0 .574-.105 1.086-.312 1.532-.211.449-.524.804-.938 1.062-.406.262-.902.39-1.484.39Zm0-.64c.414 0 .77-.102 1.062-.312.3-.208.531-.489.688-.844.156-.352.234-.754.234-1.203 0-.438-.078-.828-.234-1.172a2.003 2.003 0 0 0-.688-.844c-.293-.207-.648-.312-1.062-.312-.418 0-.778.105-1.078.312a2.03 2.03 0 0 0-.672.844c-.149.355-.22.75-.22 1.187 0 .45.071.852.22 1.203.156.356.379.637.672.844.3.2.66.297 1.078.297ZM159.59 202.46v.656h-3.125v-5.735h.734v5.078ZM166.862 202.46v.656h-3.125v-5.735h.734v5.078ZM174.165 201.444h-2.39l-.625 1.672h-.75l2.156-5.797h.812l2.172 5.797h-.765Zm-.25-.656-.953-2.563-.937 2.563ZM183.934 197.381v5.735h-.812l-2.813-4.5v4.5h-.734v-5.735h.797l2.828 4.5v-4.5ZM190.486 197.381c.938 0 1.645.246 2.125.735.489.492.735 1.203.735 2.14 0 .95-.243 1.664-.72 2.14-.48.481-1.194.72-2.14.72h-1.906v-5.735Zm2.094 2.86c0-.758-.18-1.317-.531-1.672-.344-.364-.867-.547-1.563-.547h-1.172v4.453h1.172c.696 0 1.219-.176 1.563-.531.351-.364.531-.93.531-1.703ZM199.974 203.24c-.586 0-1.086-.128-1.5-.39a2.442 2.442 0 0 1-.922-1.062c-.21-.446-.312-.958-.312-1.532 0-.562.101-1.066.312-1.515.207-.446.516-.801.922-1.063.414-.27.914-.406 1.5-.406.582 0 1.078.137 1.484.406.415.262.727.621.938 1.078.207.45.312.95.312 1.5 0 .574-.105 1.086-.312 1.532-.211.449-.523.804-.938 1.062-.406.262-.902.39-1.484.39Zm0-.64c.414 0 .77-.102 1.063-.312.3-.208.53-.489.687-.844.156-.352.234-.754.234-1.203 0-.438-.078-.828-.234-1.172a2.003 2.003 0 0 0-.687-.844c-.293-.207-.649-.312-1.063-.312-.418 0-.777.105-1.078.312a2.03 2.03 0 0 0-.672.844c-.148.355-.219.75-.219 1.187 0 .45.07.852.22 1.203.155.356.378.637.671.844.3.2.66.297 1.078.297ZM215.175 202.475v.64h-3.5v-5.734h3.469v.64h-2.735v1.892h2.36v.64h-2.36v1.922ZM222.602 202.46v.656h-3.125v-5.735h.734v5.078ZM232.175 198.038v1.968h2.36v.657h-2.36v2.453h-.735v-5.735h3.47v.657ZM241.262 203.24c-.73 0-1.277-.179-1.64-.546-.368-.375-.547-.899-.547-1.578v-3.735h.734v3.735c0 .492.117.859.36 1.109.25.25.613.375 1.093.375.477 0 .836-.125 1.078-.375.239-.25.36-.617.36-1.11v-3.734h.75v3.735c0 .68-.184 1.203-.547 1.578-.367.367-.914.547-1.64.547ZM251.737 198.038h-1.718v5.078h-.735v-5.078h-1.734v-.657h4.187ZM258.046 203.24c-.73 0-1.277-.179-1.64-.546-.368-.375-.547-.899-.547-1.578v-3.735h.734v3.735c0 .492.117.859.36 1.109.25.25.613.375 1.093.375.477 0 .836-.125 1.078-.375.239-.25.36-.617.36-1.11v-3.734h.75v3.735c0 .68-.184 1.203-.547 1.578-.367.367-.914.547-1.64.547ZM266.693 200.694h-1.11v2.422h-.733v-5.735h2c1.25 0 1.875.559 1.875 1.672 0 .438-.106.793-.313 1.063-.21.273-.523.445-.937.515l1.53 2.485h-.843Zm-1.11-.656h1.267c.75 0 1.125-.329 1.125-.985 0-.351-.094-.613-.282-.781-.187-.164-.468-.25-.843-.25h-1.266ZM275.563 203.24c-.586 0-1.086-.128-1.5-.39a2.442 2.442 0 0 1-.922-1.062c-.211-.446-.313-.958-.313-1.532 0-.562.102-1.066.313-1.515.207-.446.515-.801.922-1.063.414-.27.914-.406 1.5-.406.582 0 1.078.137 1.484.406.414.262.727.621.937 1.078.207.45.313.95.313 1.5 0 .574-.106 1.086-.313 1.532-.21.449-.523.804-.937 1.062-.406.262-.902.39-1.484.39Zm0-.64c.414 0 .77-.102 1.062-.312.3-.208.531-.489.688-.844.156-.352.234-.754.234-1.203 0-.438-.078-.828-.234-1.172a2.003 2.003 0 0 0-.688-.844c-.293-.207-.648-.312-1.062-.312-.418 0-.778.105-1.079.312a2.03 2.03 0 0 0-.671.844c-.149.355-.22.75-.22 1.187 0 .45.071.852.22 1.203.156.356.378.637.671.844.301.2.66.297 1.079.297Zm0 0"/><path fill="#eff" d="M150.553 171.578c0-.883.176-1.657.532-2.313a3.802 3.802 0 0 1 1.484-1.547c.633-.375 1.36-.562 2.172-.562 1.05 0 1.922.261 2.61.781.687.512 1.14 1.219 1.359 2.125h-1.547a2.218 2.218 0 0 0-.86-1.234c-.418-.301-.937-.453-1.562-.453-.813 0-1.477.28-1.985.843-.5.555-.75 1.34-.75 2.36 0 1.03.25 1.836.75 2.406.508.562 1.172.844 1.985.844.625 0 1.144-.145 1.562-.438.414-.289.703-.71.86-1.265h1.547c-.23.886-.696 1.593-1.391 2.125-.688.523-1.547.78-2.578.78-.813 0-1.54-.179-2.172-.546a3.754 3.754 0 0 1-1.484-1.547c-.356-.676-.532-1.46-.532-2.36ZM160.064 171.562c0-.875.176-1.64.531-2.297a3.841 3.841 0 0 1 1.469-1.547 3.959 3.959 0 0 1 2.078-.562c.75 0 1.398.168 1.953.5.55.324.969.73 1.25 1.219v-1.579h1.438v8.594h-1.438v-1.594c-.293.5-.719.918-1.281 1.25-.555.325-1.2.485-1.938.485a3.959 3.959 0 0 1-2.078-.563 3.892 3.892 0 0 1-1.453-1.578c-.355-.687-.531-1.46-.531-2.328Zm7.281.016c0-.645-.137-1.207-.406-1.688a2.73 2.73 0 0 0-1.063-1.094 2.812 2.812 0 0 0-1.453-.39c-.531 0-1.015.125-1.453.375-.437.25-.793.617-1.062 1.094-.262.48-.391 1.042-.391 1.687 0 .656.129 1.23.39 1.719.27.492.626.867 1.063 1.125.438.25.922.375 1.453.375s1.016-.125 1.453-.375c.446-.258.801-.633 1.063-1.125.27-.489.406-1.055.406-1.703ZM181.515 167.14c.664 0 1.258.14 1.781.422.531.273.945.688 1.25 1.25.3.555.453 1.227.453 2.016v5.062h-1.406v-4.86c0-.85-.215-1.503-.64-1.952-.43-.457-1-.688-1.72-.688-.742 0-1.328.242-1.765.719-.438.469-.656 1.152-.656 2.047v4.734h-1.422v-4.86c0-.85-.215-1.503-.64-1.952-.419-.457-.985-.688-1.704-.688-.742 0-1.328.242-1.766.719-.437.469-.656 1.152-.656 2.047v4.734h-1.437v-8.594h1.437v1.25a2.815 2.815 0 0 1 1.125-1.046 3.484 3.484 0 0 1 1.578-.36c.719 0 1.352.168 1.906.5.563.324.977.797 1.25 1.422a2.81 2.81 0 0 1 1.188-1.406 3.408 3.408 0 0 1 1.844-.516ZM188.06 165.906a.931.931 0 0 1-.688-.281.931.931 0 0 1-.282-.688c0-.27.094-.5.282-.687a.931.931 0 0 1 .687-.282c.258 0 .484.094.672.282a.937.937 0 0 1 .281.687c0 .273-.094.5-.281.688a.921.921 0 0 1-.672.28Zm.702 1.39v8.594h-1.437v-8.594ZM194.585 164.968c1.188 0 2.219.227 3.094.672a4.561 4.561 0 0 1 2 1.906c.469.825.703 1.793.703 2.907 0 1.117-.234 2.086-.703 2.906a4.57 4.57 0 0 1-2 1.89c-.875.43-1.906.641-3.094.641h-3.406v-10.922Zm0 9.75c1.407 0 2.477-.375 3.219-1.125.75-.75 1.125-1.797 1.125-3.14 0-1.352-.375-2.41-1.125-3.172-.75-.77-1.824-1.156-3.219-1.156h-1.968v8.593ZM203.694 166.125v3.656h3.969v1.172h-3.97v3.765h4.438v1.172h-5.875v-10.937h5.875v1.172ZM219.325 164.968 215.2 175.89h-1.64l-4.125-10.922h1.515l3.438 9.422 3.437-9.422Zm0 0"/><path fill="#c2de21" d="m237.258 174.562-7.954-4.235v-.359l7.954-4.234v.437l-7.547 3.985 7.547 3.984ZM239.014 179.03l4.031-16.343h.188l-4.047 16.344ZM251.222 176.952c-1.438 0-2.637-.28-3.594-.843a5.29 5.29 0 0 1-2.125-2.391c-.469-1.02-.703-2.219-.703-3.594 0-1.332.234-2.504.703-3.515a5.296 5.296 0 0 1 2.14-2.391c.957-.582 2.165-.875 3.625-.875 1.32 0 2.344.215 3.063.64.727.419 1.094.93 1.094 1.532 0 .46-.2.84-.594 1.14-.398.305-.969.454-1.719.454 0-1.25-.183-2.157-.547-2.72-.355-.57-.93-.858-1.718-.858-1.032 0-1.782.527-2.25 1.578-.461 1.043-.688 2.715-.688 5.015 0 2.325.285 4.012.86 5.063.581 1.043 1.507 1.562 2.78 1.562 1.821 0 2.942-1.015 3.36-3.047.332.137.5.407.5.813 0 .344-.133.703-.39 1.078-.262.375-.7.7-1.313.969-.617.258-1.445.39-2.484.39ZM257.356 174.562v-.422l7.547-3.984-7.547-3.985v-.437l7.953 4.234v.36Zm0 0"/></svg>