<svg xmlns="http://www.w3.org/2000/svg" width="500" height="500" version="1.0" viewBox="0 0 375 375"><path fill="#c2de21" d="m116.956 178.827-7.953-4.235v-.36l7.953-4.234v.438l-7.547 3.984 7.547 3.985ZM125.587 181.217c-1.437 0-2.637-.281-3.594-.844a5.29 5.29 0 0 1-2.125-2.39c-.468-1.02-.703-2.219-.703-3.594 0-1.332.235-2.504.703-3.516a5.296 5.296 0 0 1 2.141-2.39c.957-.582 2.164-.875 3.625-.875 1.32 0 2.344.215 3.062.64.727.418 1.094.93 1.094 1.532 0 .46-.199.84-.594 1.14-.398.305-.968.453-1.718.453 0-1.25-.184-2.156-.547-2.718-.356-.57-.93-.86-1.719-.86-1.031 0-1.781.528-2.25 1.578-.46 1.043-.687 2.715-.687 5.016 0 2.324.285 4.012.859 5.063.582 1.042 1.508 1.562 2.781 1.562 1.82 0 2.942-1.016 3.36-3.047.332.137.5.406.5.813 0 .343-.133.703-.391 1.078-.262.375-.7.699-1.313.969-.617.257-1.445.39-2.484.39ZM131.721 178.827v-.422l7.547-3.985-7.547-3.984v-.438l7.953 4.235v.36Zm0 0"/><path fill="#05445e" d="M88.958 189.324c.938 0 1.645.246 2.125.734.488.493.735 1.204.735 2.141 0 .95-.243 1.664-.72 2.14-.48.481-1.195.72-2.14.72h-1.906v-5.735Zm2.094 2.86c0-.758-.18-1.317-.531-1.672-.344-.364-.868-.547-1.563-.547h-1.172v4.453h1.172c.695 0 1.219-.176 1.563-.531.351-.364.53-.93.53-1.704ZM99.602 194.418v.64h-3.5v-5.734h3.469v.64h-2.734v1.891h2.359v.641h-2.36v1.922ZM111.72 194.402v.656h-3.124v-5.734h.734v5.078ZM119.024 193.387h-2.39l-.626 1.671h-.75l2.157-5.796h.812l2.172 5.796h-.766Zm-.25-.657-.953-2.562-.938 2.562ZM129.125 189.324h.735v5.734h-.735ZM139.85 189.324v5.734h-.735v-4.625l-1.75 2.454h-.39l-1.735-2.454v4.625h-.734v-5.734h.796l1.875 2.625 1.86-2.625ZM147.658 193.387h-2.39l-.626 1.671h-.75l2.157-5.796h.812l2.172 5.796h-.766Zm-.25-.657-.953-2.562-.938 2.562ZM157.459 191.558v3.094c-.305.18-.633.313-.985.406a4.41 4.41 0 0 1-.984.125c-.606 0-1.121-.125-1.547-.375a2.427 2.427 0 0 1-.953-1.046c-.211-.446-.313-.97-.313-1.563 0-.562.098-1.066.297-1.516.207-.445.52-.8.938-1.062.425-.27.953-.406 1.578-.406.332 0 .613.031.844.093.226.063.484.165.765.297v.688c-.25-.133-.5-.238-.75-.313a2.764 2.764 0 0 0-.86-.125c-.429 0-.796.102-1.109.297-.312.2-.546.477-.703.828a2.965 2.965 0 0 0-.234 1.203c0 .47.078.883.234 1.235.157.355.383.633.688.828.312.2.687.297 1.125.297.207 0 .41-.024.61-.078.194-.051.41-.117.64-.203v-2.047h-2.14v-.657ZM161.937 189.324h.734v5.734h-.734ZM171.676 189.324v5.734h-.812l-2.813-4.5v4.5h-.734v-5.734h.797l2.828 4.5v-4.5ZM179.478 193.387h-2.39l-.626 1.671h-.75l2.157-5.796h.812l2.172 5.796h-.766Zm-.25-.657-.953-2.562-.938 2.562ZM187.31 195.183c-.617 0-1.137-.12-1.563-.359a2.324 2.324 0 0 1-.937-1.047c-.211-.445-.313-.972-.313-1.578 0-.562.102-1.066.313-1.516.207-.445.52-.8.937-1.062.426-.27.946-.406 1.563-.406.258 0 .492.027.703.078.207.043.437.11.687.203v.672a3.125 3.125 0 0 0-1.375-.313 1.957 1.957 0 0 0-1.828 1.141 2.621 2.621 0 0 0-.234 1.203c0 .469.078.883.234 1.234.157.344.39.618.703.813.313.2.68.297 1.11.297.258 0 .52-.035.781-.11.258-.07.535-.18.828-.328l.235.625a3.872 3.872 0 0 1-.922.328 3.777 3.777 0 0 1-.922.125ZM193.257 189.324h.735v5.734h-.735ZM198.247 195.058Zm2.734.125c-.586 0-1.086-.128-1.5-.39a2.442 2.442 0 0 1-.922-1.063c-.21-.445-.312-.957-.312-1.53 0-.563.101-1.067.312-1.517.207-.445.516-.8.922-1.062.414-.27.914-.406 1.5-.406.582 0 1.078.136 1.485.406.414.262.726.621.937 1.078.207.45.313.95.313 1.5 0 .574-.106 1.086-.313 1.531-.21.45-.523.805-.937 1.063-.407.262-.903.39-1.485.39Zm0-.64c.414 0 .77-.102 1.063-.313.3-.207.53-.488.687-.843.156-.352.235-.754.235-1.204 0-.437-.079-.828-.235-1.171a2.003 2.003 0 0 0-.687-.844c-.293-.207-.649-.313-1.063-.313-.418 0-.777.106-1.078.313a2.03 2.03 0 0 0-.672.844c-.148.355-.219.75-.219 1.187 0 .45.07.852.22 1.203.155.356.378.637.671.844.3.2.66.297 1.078.297Zm.422-6.969h.844l-.922 1.156h-.719ZM212.35 189.324v5.734h-.813l-2.812-4.5v4.5h-.735v-5.734h.797l2.828 4.5v-4.5ZM224.843 193.387h-2.39l-.625 1.671h-.75l2.156-5.796h.812l2.172 5.796h-.765Zm-.25-.657-.953-2.562-.937 2.562ZM233.378 194.402v.656h-3.125v-5.734h.734v5.078ZM244.639 195.183c-.618 0-1.137-.12-1.563-.359a2.324 2.324 0 0 1-.937-1.047c-.211-.445-.313-.972-.313-1.578 0-.562.102-1.066.313-1.516.207-.445.52-.8.937-1.062.426-.27.945-.406 1.563-.406.257 0 .492.027.703.078.207.043.437.11.687.203v.672a3.125 3.125 0 0 0-1.375-.313 1.957 1.957 0 0 0-1.828 1.141 2.621 2.621 0 0 0-.234 1.203c0 .469.078.883.234 1.234.156.344.39.618.703.813.313.2.68.297 1.11.297.257 0 .52-.035.78-.11.259-.07.536-.18.829-.328l.234.625a3.872 3.872 0 0 1-.921.328 3.777 3.777 0 0 1-.922.125ZM250.195 195.058Zm2.735.125c-.586 0-1.086-.128-1.5-.39a2.442 2.442 0 0 1-.922-1.063c-.211-.445-.313-.957-.313-1.53 0-.563.102-1.067.313-1.517.207-.445.516-.8.922-1.062.414-.27.914-.406 1.5-.406.582 0 1.078.136 1.484.406.414.262.727.621.938 1.078.207.45.312.95.312 1.5 0 .574-.105 1.086-.312 1.531-.211.45-.524.805-.938 1.063-.406.262-.902.39-1.484.39Zm0-.64c.414 0 .77-.102 1.062-.313.301-.207.532-.488.688-.843.156-.352.234-.754.234-1.204 0-.437-.078-.828-.234-1.171a2.003 2.003 0 0 0-.688-.844c-.293-.207-.648-.313-1.062-.313-.418 0-.778.106-1.078.313a2.03 2.03 0 0 0-.672.844c-.149.355-.219.75-.219 1.187 0 .45.07.852.219 1.203.156.356.379.637.672.844.3.2.66.297 1.078.297Zm.422-6.969h.843l-.921 1.156h-.72ZM261.845 189.324c.938 0 1.645.246 2.125.734.489.493.735 1.204.735 2.141 0 .95-.242 1.664-.719 2.14-.48.481-1.195.72-2.14.72h-1.907v-5.735Zm2.094 2.86c0-.758-.18-1.317-.531-1.672-.344-.364-.867-.547-1.563-.547h-1.172v4.453h1.172c.696 0 1.22-.176 1.563-.531.351-.364.531-.93.531-1.704ZM268.99 189.324h.734v5.734h-.735ZM278.76 191.558v3.094c-.304.18-.633.313-.984.406a4.41 4.41 0 0 1-.984.125c-.606 0-1.122-.125-1.547-.375a2.427 2.427 0 0 1-.953-1.046c-.211-.446-.313-.97-.313-1.563 0-.562.098-1.066.297-1.516.207-.445.52-.8.937-1.062.426-.27.954-.406 1.579-.406.332 0 .613.031.843.093.227.063.485.165.766.297v.688c-.25-.133-.5-.238-.75-.313a2.764 2.764 0 0 0-.86-.125c-.43 0-.796.102-1.109.297-.312.2-.547.477-.703.828a2.965 2.965 0 0 0-.234 1.203c0 .47.078.883.234 1.235.156.355.383.633.688.828.312.2.687.297 1.125.297.207 0 .41-.024.609-.078.195-.051.41-.117.64-.203v-2.047h-2.14v-.657ZM285.582 195.183c-.586 0-1.086-.128-1.5-.39a2.442 2.442 0 0 1-.922-1.063c-.21-.445-.312-.957-.312-1.53 0-.563.101-1.067.312-1.517.207-.445.516-.8.922-1.062.414-.27.914-.406 1.5-.406.582 0 1.078.136 1.485.406.414.262.726.621.937 1.078.207.45.313.95.313 1.5 0 .574-.106 1.086-.313 1.531-.21.45-.523.805-.937 1.063-.407.262-.903.39-1.485.39Zm0-.64c.414 0 .77-.102 1.063-.313.3-.207.53-.488.687-.843.156-.352.235-.754.235-1.204 0-.437-.079-.828-.235-1.171a2.003 2.003 0 0 0-.687-.844c-.293-.207-.649-.313-1.063-.313-.418 0-.777.106-1.078.313a2.03 2.03 0 0 0-.672.844c-.148.355-.219.75-.219 1.187 0 .45.07.852.22 1.203.155.356.378.637.671.844.3.2.66.297 1.078.297ZM98.969 201.936c.937 0 1.644.246 2.125.734.488.493.734 1.203.734 2.141 0 .95-.242 1.664-.719 2.14-.48.481-1.195.72-2.14.72h-1.906v-5.735Zm2.094 2.86c0-.758-.18-1.317-.532-1.673-.343-.363-.867-.546-1.562-.546h-1.172v4.453h1.172c.695 0 1.219-.176 1.562-.532.352-.363.532-.93.532-1.703ZM109.613 207.03v.64h-3.5v-5.734h3.469v.64h-2.735v1.891h2.36v.64h-2.36v1.923ZM115.54 207.795c-.73 0-1.387-.132-1.97-.406l.001-.687c.582.304 1.238.453 1.969.453.414 0 .718-.086.906-.266a.887.887 0 0 0 .297-.687c0-.282-.09-.489-.266-.625-.18-.133-.437-.25-.781-.344l-.516-.156a4.094 4.094 0 0 1-.75-.282 1.495 1.495 0 0 1-.53-.484c-.138-.207-.204-.484-.204-.828 0-.531.156-.938.469-1.219.32-.289.77-.437 1.343-.437.344 0 .641.03.891.093.258.063.531.164.813.297v.672a3.538 3.538 0 0 0-1.704-.422c-.367 0-.636.09-.812.266-.168.18-.25.418-.25.719 0 .28.082.492.25.625.164.125.422.234.766.328l.515.156c.313.086.57.184.781.297.22.117.395.281.532.5.133.21.203.484.203.828-.012.5-.188.898-.531 1.187-.344.282-.82.422-1.422.422ZM124.964 205.998h-2.391l-.625 1.672h-.75l2.156-5.797h.813l2.172 5.797h-.766Zm-.25-.656-.954-2.562-.937 2.562ZM132.217 205.248h-1.11v2.422h-.734v-5.734h2c1.25 0 1.875.559 1.875 1.672 0 .437-.105.793-.312 1.062-.211.274-.524.446-.938.516l1.532 2.484h-.844Zm-1.11-.656h1.266c.75 0 1.125-.328 1.125-.984 0-.352-.093-.613-.281-.781-.187-.164-.469-.25-.844-.25h-1.265ZM140.586 205.248h-1.109v2.422h-.734v-5.734h2c1.25 0 1.875.559 1.875 1.672 0 .437-.106.793-.313 1.062-.21.274-.523.446-.937.516l1.53 2.484h-.843Zm-1.109-.656h1.266c.75 0 1.125-.328 1.125-.984 0-.352-.094-.613-.282-.781-.187-.164-.468-.25-.843-.25h-1.266ZM149.456 207.795c-.586 0-1.086-.129-1.5-.39a2.442 2.442 0 0 1-.922-1.063c-.211-.445-.313-.957-.313-1.531 0-.563.102-1.066.313-1.516.207-.445.515-.8.922-1.062.414-.27.914-.406 1.5-.406.582 0 1.078.136 1.484.406.414.262.727.621.938 1.078.207.45.312.95.312 1.5 0 .574-.105 1.086-.312 1.531-.211.45-.524.805-.938 1.063-.406.261-.902.39-1.484.39Zm0-.64c.414 0 .77-.102 1.062-.313.3-.207.531-.488.688-.844.156-.351.234-.753.234-1.203 0-.437-.078-.828-.234-1.172a2.003 2.003 0 0 0-.688-.843c-.293-.207-.648-.313-1.062-.313-.418 0-.778.106-1.078.313a2.03 2.03 0 0 0-.672.843c-.149.356-.22.75-.22 1.188 0 .45.071.852.22 1.203.156.356.379.637.672.844.3.2.66.297 1.078.297ZM159.59 207.014v.656h-3.125v-5.734h.734v5.078ZM166.862 207.014v.656h-3.125v-5.734h.734v5.078ZM174.165 205.998h-2.39l-.625 1.672h-.75l2.156-5.797h.812l2.172 5.797h-.765Zm-.25-.656-.953-2.562-.937 2.562ZM183.934 201.936v5.734h-.812l-2.813-4.5v4.5h-.734v-5.734h.797l2.828 4.5v-4.5ZM190.486 201.936c.938 0 1.645.246 2.125.734.489.493.735 1.203.735 2.141 0 .95-.243 1.664-.72 2.14-.48.481-1.194.72-2.14.72h-1.906v-5.735Zm2.094 2.86c0-.758-.18-1.317-.531-1.673-.344-.363-.867-.546-1.563-.546h-1.172v4.453h1.172c.696 0 1.219-.176 1.563-.532.351-.363.531-.93.531-1.703ZM199.974 207.795c-.586 0-1.086-.129-1.5-.39a2.442 2.442 0 0 1-.922-1.063c-.21-.445-.312-.957-.312-1.531 0-.563.101-1.066.312-1.516.207-.445.516-.8.922-1.062.414-.27.914-.406 1.5-.406.582 0 1.078.136 1.484.406.415.262.727.621.938 1.078.207.45.312.95.312 1.5 0 .574-.105 1.086-.312 1.531-.211.45-.523.805-.938 1.063-.406.261-.902.39-1.484.39Zm0-.64c.414 0 .77-.102 1.063-.313.3-.207.53-.488.687-.844.156-.351.234-.753.234-1.203 0-.437-.078-.828-.234-1.172a2.003 2.003 0 0 0-.687-.843c-.293-.207-.649-.313-1.063-.313-.418 0-.777.106-1.078.313a2.03 2.03 0 0 0-.672.843c-.148.356-.219.75-.219 1.188 0 .45.07.852.22 1.203.155.356.378.637.671.844.3.2.66.297 1.078.297ZM215.175 207.03v.64h-3.5v-5.734h3.469v.64h-2.735v1.891h2.36v.64h-2.36v1.923ZM222.602 207.014v.656h-3.125v-5.734h.734v5.078ZM232.175 202.592v1.969h2.36v.656h-2.36v2.453h-.735v-5.734h3.47v.656ZM241.262 207.795c-.73 0-1.277-.18-1.64-.547-.368-.375-.547-.898-.547-1.578v-3.734h.734v3.734c0 .493.117.86.36 1.11.25.25.613.375 1.093.375.477 0 .836-.125 1.078-.375.239-.25.36-.617.36-1.11v-3.734h.75v3.734c0 .68-.184 1.203-.547 1.578-.367.368-.914.547-1.64.547ZM251.737 202.592h-1.718v5.078h-.735v-5.078h-1.734v-.656h4.187ZM258.046 207.795c-.73 0-1.277-.18-1.64-.547-.368-.375-.547-.898-.547-1.578v-3.734h.734v3.734c0 .493.117.86.36 1.11.25.25.613.375 1.093.375.477 0 .836-.125 1.078-.375.239-.25.36-.617.36-1.11v-3.734h.75v3.734c0 .68-.184 1.203-.547 1.578-.367.368-.914.547-1.64.547ZM266.693 205.248h-1.11v2.422h-.733v-5.734h2c1.25 0 1.875.559 1.875 1.672 0 .437-.106.793-.313 1.062-.21.274-.523.446-.937.516l1.53 2.484h-.843Zm-1.11-.656h1.267c.75 0 1.125-.328 1.125-.984 0-.352-.094-.613-.282-.781-.187-.164-.468-.25-.843-.25h-1.266ZM275.563 207.795c-.586 0-1.086-.129-1.5-.39a2.442 2.442 0 0 1-.922-1.063c-.211-.445-.313-.957-.313-1.531 0-.563.102-1.066.313-1.516.207-.445.515-.8.922-1.062.414-.27.914-.406 1.5-.406.582 0 1.078.136 1.484.406.414.262.727.621.937 1.078.207.45.313.95.313 1.5 0 .574-.106 1.086-.313 1.531-.21.45-.523.805-.937 1.063-.406.261-.902.39-1.484.39Zm0-.64c.414 0 .77-.102 1.062-.313.3-.207.531-.488.688-.844.156-.351.234-.753.234-1.203 0-.437-.078-.828-.234-1.172a2.003 2.003 0 0 0-.688-.843c-.293-.207-.648-.313-1.062-.313-.418 0-.778.106-1.079.313a2.03 2.03 0 0 0-.671.843c-.149.356-.22.75-.22 1.188 0 .45.071.852.22 1.203.156.356.378.637.671.844.301.2.66.297 1.079.297Zm0 0"/><path fill="#4eb6b0" d="M150.553 175.842c0-.882.176-1.656.532-2.312a3.802 3.802 0 0 1 1.484-1.547c.633-.375 1.36-.563 2.172-.563 1.05 0 1.922.262 2.61.782.687.511 1.14 1.218 1.359 2.125h-1.547a2.218 2.218 0 0 0-.86-1.235c-.418-.3-.937-.453-1.562-.453-.813 0-1.477.281-1.985.844-.5.555-.75 1.34-.75 2.36 0 1.03.25 1.835.75 2.406.508.562 1.172.843 1.985.843.625 0 1.144-.144 1.562-.437.414-.29.703-.711.86-1.266h1.547c-.23.887-.696 1.594-1.391 2.125-.688.524-1.547.781-2.578.781-.813 0-1.54-.18-2.172-.546a3.754 3.754 0 0 1-1.484-1.547c-.356-.676-.532-1.461-.532-2.36ZM160.064 175.827c0-.875.176-1.64.531-2.297a3.841 3.841 0 0 1 1.469-1.547 3.959 3.959 0 0 1 2.078-.563c.75 0 1.398.168 1.953.5.55.325.969.731 1.25 1.22v-1.579h1.438v8.594h-1.438v-1.594c-.293.5-.719.918-1.281 1.25-.555.324-1.2.484-1.938.484a3.959 3.959 0 0 1-2.078-.562 3.892 3.892 0 0 1-1.453-1.578c-.355-.688-.531-1.461-.531-2.328Zm7.281.015c0-.644-.137-1.207-.406-1.687a2.73 2.73 0 0 0-1.063-1.094 2.812 2.812 0 0 0-1.453-.39c-.531 0-1.015.124-1.453.374-.437.25-.793.618-1.062 1.094-.262.48-.391 1.043-.391 1.688 0 .656.129 1.23.39 1.718.27.493.626.868 1.063 1.125.438.25.922.375 1.453.375s1.016-.125 1.453-.375c.446-.257.801-.632 1.063-1.125.27-.488.406-1.054.406-1.703ZM181.515 171.405c.664 0 1.258.14 1.781.422.531.273.945.687 1.25 1.25.3.554.453 1.226.453 2.015v5.063h-1.406v-4.86c0-.851-.215-1.503-.64-1.953-.43-.457-1-.687-1.72-.687-.742 0-1.328.242-1.765.719-.438.468-.656 1.152-.656 2.046v4.735h-1.422v-4.86c0-.851-.215-1.503-.64-1.953-.419-.457-.985-.687-1.704-.687-.742 0-1.328.242-1.766.719-.437.468-.656 1.152-.656 2.046v4.735h-1.437v-8.594h1.437v1.25a2.815 2.815 0 0 1 1.125-1.047 3.484 3.484 0 0 1 1.578-.36c.719 0 1.352.169 1.906.5.563.325.977.798 1.25 1.423a2.81 2.81 0 0 1 1.188-1.407 3.408 3.408 0 0 1 1.844-.515ZM188.06 170.17a.931.931 0 0 1-.688-.28.931.931 0 0 1-.282-.688c0-.27.094-.5.282-.688a.931.931 0 0 1 .687-.281c.258 0 .484.094.672.281a.937.937 0 0 1 .281.688c0 .273-.094.5-.281.687a.921.921 0 0 1-.672.281Zm.702 1.391v8.594h-1.437v-8.594ZM194.585 169.233c1.188 0 2.219.227 3.094.672a4.561 4.561 0 0 1 2 1.906c.469.824.703 1.793.703 2.906 0 1.118-.234 2.086-.703 2.907a4.57 4.57 0 0 1-2 1.89c-.875.43-1.906.64-3.094.64h-3.406v-10.921Zm0 9.75c1.407 0 2.477-.375 3.219-1.125.75-.75 1.125-1.797 1.125-3.14 0-1.352-.375-2.41-1.125-3.173-.75-.769-1.824-1.156-3.219-1.156h-1.968v8.594ZM203.694 170.39v3.655h3.969v1.172h-3.97v3.766h4.438v1.172h-5.875v-10.938h5.875v1.172ZM219.325 169.233l-4.125 10.922h-1.64l-4.125-10.922h1.515l3.438 9.422 3.437-9.422Zm0 0"/><path fill="#c2de21" d="m237.258 178.827-7.954-4.235v-.36l7.954-4.234v.438l-7.547 3.984 7.547 3.985ZM239.014 183.295l4.031-16.343h.188l-4.047 16.343ZM251.222 181.217c-1.438 0-2.637-.281-3.594-.844a5.29 5.29 0 0 1-2.125-2.39c-.469-1.02-.703-2.219-.703-3.594 0-1.332.234-2.504.703-3.516a5.296 5.296 0 0 1 2.14-2.39c.957-.582 2.165-.875 3.625-.875 1.32 0 2.344.215 3.063.64.727.418 1.094.93 1.094 1.532 0 .46-.2.84-.594 1.14-.398.305-.969.453-1.719.453 0-1.25-.183-2.156-.547-2.718-.355-.57-.93-.86-1.718-.86-1.032 0-1.782.528-2.25 1.578-.461 1.043-.688 2.715-.688 5.016 0 2.324.285 4.012.86 5.063.581 1.042 1.507 1.562 2.78 1.562 1.821 0 2.942-1.016 3.36-3.047.332.137.5.406.5.813 0 .343-.133.703-.39 1.078-.262.375-.7.699-1.313.969-.617.257-1.445.39-2.484.39ZM257.356 178.827v-.422l7.547-3.985-7.547-3.984v-.438l7.953 4.235v.36Zm0 0"/></svg>