<?xml version="1.0" encoding="utf-8"?>
<!-- Generator: Adobe Illustrator 16.2.1, SVG Export Plug-In . SVG Version: 6.00 Build 0)  -->
<!DOCTYPE svg PUBLIC "-//W3C//DTD SVG 1.1//EN" "http://www.w3.org/Graphics/SVG/1.1/DTD/svg11.dtd">
<svg version="1.1" id="Calque_1" xmlns="http://www.w3.org/2000/svg" xmlns:xlink="http://www.w3.org/1999/xlink" x="0px" y="0px"
	 width="351.4736328px" height="102.015625px" viewBox="0 0 351.4736328 102.015625"
	 enable-background="new 0 0 351.4736328 102.015625" xml:space="preserve">
<g>
	<rect fill="none" width="351.4736328" height="102.015625"/>
	<g>
		<g>
			<path fill="#232D4B" d="M89.6845703,52.5107422v15.5H78.3496094V57.1025391c0-4.8647461-1.6455078-6.9423828-6.7470703-6.9423828
				c-3.3515625,0-6.8945312,1.4638672-9.1142578,3.5898438v14.2607422H51.1533203V40.5043945h11.3349609v3.987793
				c3.4013672-2.3618164,7.7451172-4.2509766,13.6962891-4.2509766
				C82.5615234,40.2412109,89.6845703,42.2612305,89.6845703,52.5107422z M152.7880859,31.8691406h-11.3359375v8.6352539h-6.0839844
				v9.190918h6.0839844v18.3154297h22.6699219v-9.21875h-11.3339844v-9.0966797h11.3339844v-9.190918h-11.3339844V31.8691406z
				 M132.2958984,56.1201172h-26.4804688c0.9296875,2.9785156,4.0488281,3.7226562,7.1201172,3.7226562
				c3.0244141,0,4.6982422-0.1552734,6.3017578-0.9902344l12.3339844,0.0009766
				c-1.7949219,6.6025391-7.7636719,9.8320312-18.6357422,9.8320312c-10.9365234,0-18.5234375-4.0957031-18.5234375-14.4277344
				c0-10.331543,7.5869141-14.4277344,18.9892578-14.4277344C124.8974609,39.8300781,132.2958984,43.9262695,132.2958984,56.1201172
				z M120.4326172,49.8798828c-1.3066406-1.8583984-4.1142578-2.7211914-7.0927734-2.7211914
				c-2.9794922,0-5.7568359,0.862793-6.9619141,2.7211914H120.4326172z M195.8447266,55.1894531
				c-2.1308594,2.0390625-5.5292969,3.4443359-8.7470703,3.4443359c-4.8955078,0-6.5722656-1.9941406-6.5722656-6.6625977
				V40.5043945h-11.3349609v15.9086914c0,9.8349609,7.3916016,11.7382812,13.5107422,11.7382812
				c5.7109375,0,9.8798828-1.8125,13.1435547-4.0791016l-0.0009766,3.9384766h11.3359375l0.0009766-27.5063477h-11.3359375
				V55.1894531z M260.4267578,40.0683594c-6.6875,0-10.6679688,2.1074219-13.4169922,5.2988281
				c-2.1533203-4.03125-6.8759766-5.2988281-10.3115234-5.2988281c-6.6875,0-9.9404297,2.7480469-12.3681641,5.0385742v-4.6025391
				h-11.3349609v27.5043945l11.3349609,0.0019531V53.1699219c2.3359375-2.2905273,4.671875-3.4819336,7.4667969-3.4819336
				c4.03125,0,5.2675781,2.015625,5.2675781,6.7338867v11.5888672h11.3349609l-0.0166016-15.1308594
				c2.3359375-2.2905273,4.3476562-3.1918945,7.1425781-3.1918945c4.0302734,0,5.2675781,2.015625,5.2675781,6.7338867v11.5888672
				h11.3359375V51.4746094C272.1289062,41.9921875,265.2373047,40.0683594,260.4267578,40.0683594z M34.0029297,40.5043945
				l0.0507812,27.5063477h11.2851562l-0.0507812-27.5063477H34.0029297z M45.3388672,26.2011719H34.0029297v11.3354492h11.3359375
				V26.2011719z"/>
			<path fill="#00AA9B" d="M294.7988281,34.0058594v11.3349609h11.3349609v11.3359375H317.46875V34.0058594H294.7988281z
				 M294.7988281,56.6767578h-11.3349609v11.3339844h11.3349609V56.6767578z"/>
		</g>
	</g>
</g>
</svg>
