<svg xmlns="http://www.w3.org/2000/svg" width="190" height="189" style="shape-rendering:geometricPrecision;text-rendering:geometricPrecision;image-rendering:optimizeQuality;fill-rule:evenodd;clip-rule:evenodd"><path style="opacity:.978" fill="#ff0301" d="M83.5-.5h22c48.343 9.343 76.343 38.343 84 87v15c-7.655 48.655-35.655 77.655-84 87h-22c-46.524-8.857-74.524-36.523-84-83v-23c9.485-46.486 37.485-74.152 84-83Z"/><path style="opacity:1" fill="#fcf9fa" d="M84.5 41.5c26.822-2.593 46.489 7.907 59 31.5-32.672.833-65.338.667-98-.5 8.061-16.746 21.061-27.08 39-31Z"/><path style="opacity:1" fill="#558dd4" d="M86.5 46.5c20.687-1.652 37.021 5.848 49 22.5-27.333.667-54.667.667-82 0 8.242-11.774 19.242-19.274 33-22.5Z"/><path style="opacity:1" fill="#ff9a99" d="M17.5 82.5h-6v18c-.99-6.145-1.323-12.478-1-19 2.56-.302 4.893.032 7 1Z"/><path style="opacity:1" fill="snow" d="M17.5 82.5c-.166 6.01 0 12.01.5 18 3.258 2.846 6.092 2.513 8.5-1 .989-5.475 1.322-11.142 1-17h5v18c.107 2.403-.893 4.236-3 5.5-5.027 1.939-10.027 1.939-15 0-1.66-1.488-2.66-3.321-3-5.5v-18h6Z"/><path style="opacity:1" fill="#ffc6c6" d="M32.5 100.5v-18h-5c.322 5.858-.011 11.525-1 17v-18h7c.324 6.522-.01 12.855-1 19Z"/><path style="opacity:1" fill="#fff7f7" d="M78.5 106.5h-6c.166-5.344 0-10.677-.5-16-.717.544-1.217 1.21-1.5 2-.584 3.875-2.584 6.542-6 8l-3-1a42.641 42.641 0 0 0-3.5-8 128.43 128.43 0 0 0-.5 16h-6v-26c2.747-.313 5.413.02 8 1a218.773 218.773 0 0 0 5.5 11l5.5-11a16.869 16.869 0 0 1 8-1v25Z"/><path style="opacity:1" fill="#ff9695" d="M103.5 82.5h-6v24h18c-6.145.99-12.478 1.323-19 1v-26c2.56-.302 4.893.032 7 1Z"/><path style="opacity:1" fill="#fffefe" d="M103.5 82.5v20h12v4h-18v-24h6Z"/><path style="opacity:1" fill="#fff9f8" d="M172.5 87.5c1.419.951 3.085 1.284 5 1v3c-1.915-.284-3.581.049-5 1-.313 3.542.021 6.875 1 10 1.068.934 2.401 1.268 4 1v4a32.462 32.462 0 0 1-8-.5 4.457 4.457 0 0 1-2-1.5 46.756 46.756 0 0 1-1-13h-3v-5h3v-5h6v5Z"/><path style="opacity:1" fill="#fff5f5" d="M135.5 87.5c9.318-1.83 14.318 1.837 15 11a57.124 57.124 0 0 0-15 1c1.291 2.797 3.458 4.13 6.5 4a42.334 42.334 0 0 0 7.5-2v5a45.019 45.019 0 0 1-14 .5c-5.525-2.919-7.358-7.419-5.5-13.5 1.36-2.523 3.193-4.523 5.5-6Z"/><path style="opacity:1" fill="#ff9d9c" d="M172.5 87.5h6v5h-6c1.419-.951 3.085-1.284 5-1v-3c-1.915.284-3.581-.049-5-1Z"/><path style="opacity:1" fill="#ff9797" d="M78.5 106.5c-2.107.968-4.44 1.302-7 1 .32-5.195-.013-10.195-1-15 .283-.79.783-1.456 1.5-2 .5 5.323.666 10.656.5 16h6Z"/><path style="opacity:1" fill="#ff3123" d="M143.5 94.5c-2.559.302-4.893-.032-7-1 .462-1.38 1.462-2.047 3-2 2.153.061 3.486 1.061 4 3Z"/><path style="opacity:1" fill="#ff9796" d="M136.5 93.5c2.107.968 4.441 1.302 7 1-2.524 1.3-5.191 1.3-8 0 .124-.607.457-.94 1-1Z"/><path style="opacity:1" fill="#ff8684" d="M173.5 102.5h5c.284 1.915-.049 3.581-1 5v-4c-1.599.268-2.932-.066-4-1Z"/><path style="opacity:1" fill="#ffb1b1" d="M142.5 115.5c-32.171-.332-64.171.002-96 1-.543-.06-.876-.393-1-1 32.498-1.33 64.831-1.33 97 0Z"/><path style="opacity:1" fill="#fbf8fa" d="M142.5 115.5c-9.777 20.402-26.11 30.736-49 31-21.706-.679-37.373-10.679-47-30a2304.214 2304.214 0 0 1 96-1Z"/><path style="opacity:1" fill="#568ed4" d="M54.5 119.5c26.675-.333 53.342 0 80 1-12.95 17.632-30.283 24.465-52 20.5-12.223-3.589-21.556-10.756-28-21.5Z"/></svg>